<svg id="레이어_1" data-name="레이어 1" xmlns="http://www.w3.org/2000/svg" viewBox="0 0 119.88 30.37"><defs><style>.cls-1{fill:#fff;}</style></defs><title>logo_svg</title><path class="cls-1" d="M16.21,11.38H41.73s-.26-.78-2.08-1.82L30.53,4.35a3.59,3.59,0,0,0-3.13,0c-1.82.78-9.63,5.47-9.63,5.47A8,8,0,0,0,16.21,11.38Z" transform="translate(-15.69 -4)"/><path class="cls-1" d="M25.58,14H42.25V24.92a4.3,4.3,0,0,1-1.82,2.61c-1.57,1-9.9,5.73-9.9,5.73a3.79,3.79,0,0,1-3.13,0,9.49,9.49,0,0,1-1.82-1Z" transform="translate(-15.69 -4)"/><path class="cls-1" d="M15.69,14H23l-.26,16.67-5.47-3.12a5,5,0,0,1-1.56-3.65V14Z" transform="translate(-15.69 -4)"/><path class="cls-1" d="M58.06,13.61h-5.7V10.9H67v2.71H61.28V29H58.06Z" transform="translate(-15.69 -4)"/><path class="cls-1" d="M68,23.82V15.4h3.2v8c0,2.16.68,3.18,2.54,3.18,1.28,0,2.2-.54,3.41-2V15.4h3.2V29H77.75l-.25-2.16h-.11a6.19,6.19,0,0,1-4.81,2.49C69.43,29.32,68,27.32,68,23.82Z" transform="translate(-15.69 -4)"/><path class="cls-1" d="M84.46,15.4H87.1l.27,3.09h.07a6.73,6.73,0,0,1,5.78-3.42,5.73,5.73,0,0,1,2.65.55l-.68,2.71a6.8,6.8,0,0,0-2.46-.42c-1.86,0-3.68.95-5.07,3.59V29h-3.2Z" transform="translate(-15.69 -4)"/><path class="cls-1" d="M97.88,15.4h2.62l.24,1.56h.09a6.75,6.75,0,0,1,4.37-1.89c3.52,0,5.53,2.71,5.53,6.92,0,4.64-2.88,7.33-6,7.33A5.58,5.58,0,0,1,101,27.71h-.08l.15,2.38v4.28h-3.2ZM107.45,22c0-2.7-1-4.29-3.15-4.29a4.55,4.55,0,0,0-3.22,1.62v6.11a4.57,4.57,0,0,0,3,1.22C106,26.67,107.45,25.09,107.45,22Z" transform="translate(-15.69 -4)"/><path class="cls-1" d="M114.32,24V12h-4.53V9.45h7.73V24.21a2.23,2.23,0,0,0,2.44,2.5,5.88,5.88,0,0,0,2.33-.53l.74,2.37a9.8,9.8,0,0,1-3.85.77C116,29.32,114.32,27.38,114.32,24Z" transform="translate(-15.69 -4)"/><path class="cls-1" d="M122.26,22.18a6.89,6.89,0,0,1,7-7.11c4.06,0,6.31,2.69,6.31,6.45a9.9,9.9,0,0,1-.15,1.61H124.54V20.87h8.82l-.61.71c0-2.69-1.27-4-3.39-4s-4,1.62-4,4.65,1.9,4.67,4.73,4.67a7.44,7.44,0,0,0,3.81-1.11l1.09,2a9.91,9.91,0,0,1-5.32,1.6C125.53,29.32,122.26,26.7,122.26,22.18Z" transform="translate(-15.69 -4)"/></svg>